<svg xmlns="http://www.w3.org/2000/svg" viewBox="0 0 480 640" width="480" height="640" role="img" aria-label="">
  <defs>
    <linearGradient id="sky" x1="0%" y1="0%" x2="0%" y2="100%">
      <stop offset="0%" stop-color="#B3E5FC" />
      <stop offset="55%" stop-color="#E1F5FE" />
      <stop offset="100%" stop-color="#C8E6C9" />
    </linearGradient>
    <linearGradient id="field" x1="0%" y1="0%" x2="0%" y2="100%">
      <stop offset="0%" stop-color="#7CB342" />
      <stop offset="40%" stop-color="#558B2F" />
      <stop offset="100%" stop-color="#33691E" />
    </linearGradient>
    <linearGradient id="hut" x1="0%" y1="0%" x2="100%" y2="100%">
      <stop offset="0%" stop-color="#8D6E63" />
      <stop offset="100%" stop-color="#5D4037" />
    </linearGradient>
  </defs>
  <rect width="480" height="640" fill="url(#sky)" />
  <path
    d="M0 280 Q120 260 240 275 T480 265 L480 640 L0 640 Z"
    fill="url(#field)"
    opacity="0.95"
  />
  <path
    d="M0 320 Q160 300 320 318 T480 308 L480 640 L0 640 Z"
    fill="#689F38"
    opacity="0.85"
  />
  <ellipse cx="360" cy="210" rx="90" ry="28" fill="#2E7D32" opacity="0.35" />
  <ellipse cx="120" cy="230" rx="70" ry="22" fill="#1B5E20" opacity="0.25" />
  <g transform="translate(280 160)">
    <path d="M0 120 L60 40 L120 120 Z" fill="#5D4037" />
    <rect x="20" y="120" width="80" height="70" fill="url(#hut)" />
    <rect x="35" y="140" width="18" height="28" fill="#3E2723" opacity="0.6" />
  </g>
  <g fill="none" stroke="#AED581" stroke-width="1.2" opacity="0.5">
    <path d="M40 400 L440 380" />
    <path d="M30 430 L450 408" />
    <path d="M20 460 L460 436" />
    <path d="M15 490 L465 464" />
  </g>
</svg>
